<svg width="341" height="205" viewBox="0 0 341 205" fill="none" xmlns="http://www.w3.org/2000/svg">
<rect width="340" height="205" rx="16" fill="white"/>
<path d="M292 131V86" stroke="#4B4B4B" stroke-width="0.5" stroke-dasharray="1 1"/>
<path d="M2 187L56 114L76 169.5L112.5 84L126 160L158 131L185 151.5L241.5 109L272.5 169.5L310 96L340.5 80" stroke="#FE9905"/>
<path d="M56 114L2 187H340.5V80L310 96L272.5 169.5L241.5 109L185 151.5L158 131L126 160L112.5 84L76 169.5L56 114Z" fill="url(#paint0_linear_57_182)"/>
<line y1="131.75" x2="338" y2="131.75" stroke="#13AA19" stroke-width="0.5" stroke-dasharray="4 8"/>
<path d="M19.2727 13.4545H18.1818L16.375 18.6705H16.3068L14.5 13.4545H13.4091L15.8295 20H16.8523L19.2727 13.4545ZM22.3271 20.1534C23.4691 20.1534 24.0657 19.5398 24.2702 19.1136H24.3214V20H25.3271V15.6875C25.3271 13.608 23.7418 13.3693 22.9066 13.3693C21.918 13.3693 20.793 13.7102 20.2816 14.9034L21.2362 15.2443C21.4577 14.767 21.9819 14.2557 22.9407 14.2557C23.8654 14.2557 24.3214 14.7457 24.3214 15.5852V15.6193C24.3214 16.1051 23.8271 16.0625 22.6339 16.2159C21.4194 16.3736 20.0941 16.642 20.0941 18.142C20.0941 19.4205 21.0827 20.1534 22.3271 20.1534ZM22.4805 19.25C21.6793 19.25 21.0998 18.892 21.0998 18.1932C21.0998 17.4261 21.7987 17.1875 22.5827 17.0852C23.0089 17.0341 24.1509 16.9148 24.3214 16.7102V17.6307C24.3214 18.4489 23.6737 19.25 22.4805 19.25ZM28.1683 11.2727H27.1626V20H28.1683V11.2727ZM32.6694 20.1364C34.4421 20.1364 35.6353 18.7898 35.6353 16.7614C35.6353 14.7159 34.4421 13.3693 32.6694 13.3693C30.8967 13.3693 29.7035 14.7159 29.7035 16.7614C29.7035 18.7898 30.8967 20.1364 32.6694 20.1364ZM32.6694 19.233C31.3228 19.233 30.7092 18.0739 30.7092 16.7614C30.7092 15.4489 31.3228 14.2727 32.6694 14.2727C34.016 14.2727 34.6296 15.4489 34.6296 16.7614C34.6296 18.0739 34.016 19.233 32.6694 19.233ZM37.1705 20H38.1761V15.858C38.1761 14.9716 38.875 14.3239 39.8295 14.3239C40.098 14.3239 40.375 14.375 40.4432 14.392V13.3693C40.3281 13.3608 40.0639 13.3523 39.9148 13.3523C39.1307 13.3523 38.4489 13.7955 38.2102 14.4432H38.142V13.4545H37.1705V20ZM45.0103 20H46.016V15.858C46.016 14.9716 46.7148 14.3239 47.6694 14.3239C47.9379 14.3239 48.2148 14.375 48.283 14.392V13.3693C48.168 13.3608 47.9038 13.3523 47.7546 13.3523C46.9705 13.3523 46.2887 13.7955 46.0501 14.4432H45.9819V13.4545H45.0103V20ZM52.0202 20.1364C53.3498 20.1364 54.3214 19.4716 54.6282 18.483L53.6566 18.2102C53.4009 18.892 52.8086 19.233 52.0202 19.233C50.8398 19.233 50.0259 18.4702 49.979 17.0682H54.7305V16.642C54.7305 14.2045 53.2816 13.3693 51.918 13.3693C50.1452 13.3693 48.9691 14.767 48.9691 16.7784C48.9691 18.7898 50.1282 20.1364 52.0202 20.1364ZM49.979 16.1989C50.0472 15.1804 50.7674 14.2727 51.918 14.2727C53.0089 14.2727 53.7077 15.0909 53.7077 16.1989H49.979ZM58.9194 20.1364C60.3683 20.1364 61.3228 19.25 61.4933 18.0909H60.4876C60.3001 18.8068 59.7035 19.233 58.9194 19.233C57.7262 19.233 56.9592 18.2443 56.9592 16.7273C56.9592 15.2443 57.7433 14.2727 58.9194 14.2727C59.8058 14.2727 60.3342 14.8182 60.4876 15.4148H61.4933C61.3228 14.1875 60.283 13.3693 58.9023 13.3693C57.1296 13.3693 55.9535 14.767 55.9535 16.7614C55.9535 18.7216 57.0785 20.1364 58.9194 20.1364ZM65.6225 20.1364C67.3952 20.1364 68.5884 18.7898 68.5884 16.7614C68.5884 14.7159 67.3952 13.3693 65.6225 13.3693C63.8498 13.3693 62.6566 14.7159 62.6566 16.7614C62.6566 18.7898 63.8498 20.1364 65.6225 20.1364ZM65.6225 19.233C64.2759 19.233 63.6623 18.0739 63.6623 16.7614C63.6623 15.4489 64.2759 14.2727 65.6225 14.2727C66.9691 14.2727 67.5827 15.4489 67.5827 16.7614C67.5827 18.0739 66.9691 19.233 65.6225 19.233ZM70.1236 20H71.1293V15.9091C71.1293 14.9503 71.8281 14.2727 72.6122 14.2727C73.375 14.2727 73.9077 14.7713 73.9077 15.517V20H74.9304V15.7386C74.9304 14.8949 75.4588 14.2727 76.3793 14.2727C77.0952 14.2727 77.7088 14.652 77.7088 15.6193V20H78.7145V15.6193C78.7145 14.081 77.8878 13.3693 76.7202 13.3693C75.7827 13.3693 75.0966 13.7997 74.7599 14.4773H74.6918C74.3679 13.7784 73.7969 13.3693 72.9361 13.3693C72.0838 13.3693 71.4531 13.7784 71.1804 14.4773H71.0952V13.4545H70.1236V20ZM83.2976 20.1364C84.6271 20.1364 85.5987 19.4716 85.9055 18.483L84.9339 18.2102C84.6783 18.892 84.0859 19.233 83.2976 19.233C82.1172 19.233 81.3033 18.4702 81.2564 17.0682H86.0078V16.642C86.0078 14.2045 84.5589 13.3693 83.1953 13.3693C81.4226 13.3693 80.2464 14.767 80.2464 16.7784C80.2464 18.7898 81.4055 20.1364 83.2976 20.1364ZM81.2564 16.1989C81.3246 15.1804 82.0447 14.2727 83.1953 14.2727C84.2862 14.2727 84.9851 15.0909 84.9851 16.1989H81.2564ZM88.5433 16.0625C88.5433 14.9205 89.2507 14.2727 90.2138 14.2727C91.147 14.2727 91.7138 14.8821 91.7138 15.9091V20H92.7195V15.8409C92.7195 14.1705 91.8288 13.3693 90.5036 13.3693C89.5149 13.3693 88.9013 13.8125 88.5945 14.4773H88.5092V13.4545H87.5376V20H88.5433V16.0625ZM97.0288 20.1364C98.2901 20.1364 98.7163 19.3523 98.9379 18.9943H99.0572V20H100.029V11.2727H99.0231V14.4943H98.9379C98.7163 14.1534 98.3242 13.3693 97.0458 13.3693C95.3924 13.3693 94.2504 14.6818 94.2504 16.7443C94.2504 18.8239 95.3924 20.1364 97.0288 20.1364ZM97.1651 19.233C95.9038 19.233 95.256 18.125 95.256 16.7273C95.256 15.3466 95.8867 14.2727 97.1651 14.2727C98.3924 14.2727 99.0401 15.2614 99.0401 16.7273C99.0401 18.2102 98.3754 19.233 97.1651 19.233ZM103.936 20.1534C105.078 20.1534 105.675 19.5398 105.88 19.1136H105.931V20H106.936V15.6875C106.936 13.608 105.351 13.3693 104.516 13.3693C103.527 13.3693 102.402 13.7102 101.891 14.9034L102.846 15.2443C103.067 14.767 103.591 14.2557 104.55 14.2557C105.475 14.2557 105.931 14.7457 105.931 15.5852V15.6193C105.931 16.1051 105.436 16.0625 104.243 16.2159C103.029 16.3736 101.703 16.642 101.703 18.142C101.703 19.4205 102.692 20.1534 103.936 20.1534ZM104.09 19.25C103.289 19.25 102.709 18.892 102.709 18.1932C102.709 17.4261 103.408 17.1875 104.192 17.0852C104.618 17.0341 105.76 16.9148 105.931 16.7102V17.6307C105.931 18.4489 105.283 19.25 104.09 19.25ZM111.244 20.1364C112.505 20.1364 112.931 19.3523 113.153 18.9943H113.272V20H114.244V11.2727H113.238V14.4943H113.153C112.931 14.1534 112.539 13.3693 111.261 13.3693C109.607 13.3693 108.465 14.6818 108.465 16.7443C108.465 18.8239 109.607 20.1364 111.244 20.1364ZM111.38 19.233C110.119 19.233 109.471 18.125 109.471 16.7273C109.471 15.3466 110.102 14.2727 111.38 14.2727C112.607 14.2727 113.255 15.2614 113.255 16.7273C113.255 18.2102 112.59 19.233 111.38 19.233ZM118.884 20.1364C120.657 20.1364 121.85 18.7898 121.85 16.7614C121.85 14.7159 120.657 13.3693 118.884 13.3693C117.112 13.3693 115.918 14.7159 115.918 16.7614C115.918 18.7898 117.112 20.1364 118.884 20.1364ZM118.884 19.233C117.538 19.233 116.924 18.0739 116.924 16.7614C116.924 15.4489 117.538 14.2727 118.884 14.2727C120.231 14.2727 120.844 15.4489 120.844 16.7614C120.844 18.0739 120.231 19.233 118.884 19.233Z" fill="#4B4B4B"/>
<path d="M19.2727 31.4545H18.1818L16.375 36.6705H16.3068L14.5 31.4545H13.4091L15.8295 38H16.8523L19.2727 31.4545ZM22.3271 38.1534C23.4691 38.1534 24.0657 37.5398 24.2702 37.1136H24.3214V38H25.3271V33.6875C25.3271 31.608 23.7418 31.3693 22.9066 31.3693C21.918 31.3693 20.793 31.7102 20.2816 32.9034L21.2362 33.2443C21.4577 32.767 21.9819 32.2557 22.9407 32.2557C23.8654 32.2557 24.3214 32.7457 24.3214 33.5852V33.6193C24.3214 34.1051 23.8271 34.0625 22.6339 34.2159C21.4194 34.3736 20.0941 34.642 20.0941 36.142C20.0941 37.4205 21.0827 38.1534 22.3271 38.1534ZM22.4805 37.25C21.6793 37.25 21.0998 36.892 21.0998 36.1932C21.0998 35.4261 21.7987 35.1875 22.5827 35.0852C23.0089 35.0341 24.1509 34.9148 24.3214 34.7102V35.6307C24.3214 36.4489 23.6737 37.25 22.4805 37.25ZM28.1683 29.2727H27.1626V38H28.1683V29.2727ZM32.6694 38.1364C34.4421 38.1364 35.6353 36.7898 35.6353 34.7614C35.6353 32.7159 34.4421 31.3693 32.6694 31.3693C30.8967 31.3693 29.7035 32.7159 29.7035 34.7614C29.7035 36.7898 30.8967 38.1364 32.6694 38.1364ZM32.6694 37.233C31.3228 37.233 30.7092 36.0739 30.7092 34.7614C30.7092 33.4489 31.3228 32.2727 32.6694 32.2727C34.016 32.2727 34.6296 33.4489 34.6296 34.7614C34.6296 36.0739 34.016 37.233 32.6694 37.233ZM37.1705 38H38.1761V33.858C38.1761 32.9716 38.875 32.3239 39.8295 32.3239C40.098 32.3239 40.375 32.375 40.4432 32.392V31.3693C40.3281 31.3608 40.0639 31.3523 39.9148 31.3523C39.1307 31.3523 38.4489 31.7955 38.2102 32.4432H38.142V31.4545H37.1705V38ZM47.6523 40.5909C49.2205 40.5909 50.4819 39.875 50.4819 38.1875V31.4545H49.5103V32.4943H49.408C49.1864 32.1534 48.7773 31.3693 47.4989 31.3693C45.8455 31.3693 44.7035 32.6818 44.7035 34.6932C44.7035 36.7386 45.8967 37.8977 47.4819 37.8977C48.7603 37.8977 49.1694 37.1477 49.391 36.7898H49.4762V38.1193C49.4762 39.2102 48.7092 39.7045 47.6523 39.7045C46.4634 39.7045 46.0458 39.0781 45.7773 38.7159L44.9762 39.2784C45.3853 39.9645 46.1907 40.5909 47.6523 40.5909ZM47.6183 36.9943C46.3569 36.9943 45.7092 36.0398 45.7092 34.6761C45.7092 33.3466 46.3398 32.2727 47.6183 32.2727C48.8455 32.2727 49.4933 33.2614 49.4933 34.6761C49.4933 36.125 48.8285 36.9943 47.6183 36.9943ZM54.2489 38.1534C55.391 38.1534 55.9876 37.5398 56.1921 37.1136H56.2433V38H57.2489V33.6875C57.2489 31.608 55.6637 31.3693 54.8285 31.3693C53.8398 31.3693 52.7148 31.7102 52.2035 32.9034L53.158 33.2443C53.3796 32.767 53.9038 32.2557 54.8626 32.2557C55.7873 32.2557 56.2433 32.7457 56.2433 33.5852V33.6193C56.2433 34.1051 55.7489 34.0625 54.5558 34.2159C53.3413 34.3736 52.016 34.642 52.016 36.142C52.016 37.4205 53.0046 38.1534 54.2489 38.1534ZM54.4023 37.25C53.6012 37.25 53.0217 36.892 53.0217 36.1932C53.0217 35.4261 53.7205 35.1875 54.5046 35.0852C54.9308 35.0341 56.0728 34.9148 56.2433 34.7102V35.6307C56.2433 36.4489 55.5955 37.25 54.4023 37.25ZM63.7209 32.9205C63.4055 31.9915 62.6982 31.3693 61.4027 31.3693C60.022 31.3693 58.9993 32.1534 58.9993 33.2614C58.9993 34.1648 59.5362 34.7699 60.7379 35.0511L61.8288 35.3068C62.4893 35.4602 62.8004 35.7756 62.8004 36.2273C62.8004 36.7898 62.2038 37.25 61.2663 37.25C60.4439 37.25 59.9283 36.8963 59.7493 36.1932L58.7947 36.4318C59.0291 37.544 59.9453 38.1364 61.2834 38.1364C62.8047 38.1364 63.8402 37.3054 63.8402 36.1761C63.8402 35.2642 63.2692 34.6889 62.1016 34.4034L61.13 34.1648C60.3544 33.973 60.005 33.7131 60.005 33.2102C60.005 32.6477 60.6016 32.2386 61.4027 32.2386C62.2805 32.2386 62.6428 32.7244 62.8175 33.1761L63.7209 32.9205ZM68.2006 31.4545H66.8029V29.8864H65.7972V31.4545H64.8086V32.3068H65.7972V36.3977C65.7972 37.5398 66.7177 38.0852 67.57 38.0852C67.945 38.0852 68.1836 38.017 68.32 37.9659L68.1154 37.0625C68.0302 37.0795 67.8938 37.1136 67.6722 37.1136C67.229 37.1136 66.8029 36.9773 66.8029 36.125V32.3068H68.2006V31.4545ZM72.3022 38.1364C74.0749 38.1364 75.2681 36.7898 75.2681 34.7614C75.2681 32.7159 74.0749 31.3693 72.3022 31.3693C70.5295 31.3693 69.3363 32.7159 69.3363 34.7614C69.3363 36.7898 70.5295 38.1364 72.3022 38.1364ZM72.3022 37.233C70.9556 37.233 70.342 36.0739 70.342 34.7614C70.342 33.4489 70.9556 32.2727 72.3022 32.2727C73.6488 32.2727 74.2624 33.4489 74.2624 34.7614C74.2624 36.0739 73.6488 37.233 72.3022 37.233Z" fill="#4B4B4B"/>
<circle cx="4.5" cy="15.5" r="4.5" fill="#13AA19"/>
<circle cx="4.5" cy="33.5" r="4.5" fill="#FE9905"/>
<defs>
<linearGradient id="paint0_linear_57_182" x1="171.25" y1="80" x2="171.25" y2="187" gradientUnits="userSpaceOnUse">
<stop stop-color="#FE9905"/>
<stop offset="0.846875" stop-color="white" stop-opacity="0"/>
</linearGradient>
</defs>
</svg>
