<svg width="375" height="213" viewBox="0 0 375 213" fill="none" xmlns="http://www.w3.org/2000/svg">
<g filter="url(#filter0_b_70_673)">
<rect width="375" height="213" fill="#FEFEFE"/>
</g>
<mask id="path-2-outside-1_70_673" maskUnits="userSpaceOnUse" x="295.882" y="179" width="24" height="20" fill="black">
<rect fill="white" x="295.882" y="179" width="24" height="20"/>
<path fill-rule="evenodd" clip-rule="evenodd" d="M300.487 193.483L300.652 193.646L300.729 193.719L302.967 195.956C303.064 196.056 303.166 196.156 303.312 196.299C303.389 196.378 303.474 196.462 303.603 196.585L303.644 196.628C303.698 196.685 303.711 196.699 303.736 196.722C304.032 197.018 304.389 197.277 304.779 197.477C305.17 197.675 305.587 197.812 306.018 197.884C306.414 197.95 306.814 197.986 307.214 197.991C307.305 197.993 307.35 197.995 307.407 197.996C307.526 197.999 307.626 198 307.724 198H313.614H313.615H314.208C314.356 198 314.473 197.998 314.728 197.991C315.118 197.986 315.519 197.95 315.915 197.884C316.346 197.813 316.763 197.675 317.151 197.477C317.542 197.278 317.9 197.019 318.211 196.708C318.519 196.397 318.777 196.042 318.978 195.655C319.176 195.259 319.313 194.844 319.387 194.416C319.452 194.016 319.487 193.617 319.492 193.218C319.497 193.038 319.5 192.869 319.5 192.706V185.294L319.498 185.161C319.496 184.968 319.495 184.882 319.491 184.77C319.487 184.383 319.452 183.984 319.388 183.59C319.313 183.156 319.176 182.741 318.982 182.353C318.779 181.958 318.52 181.602 318.21 181.292C317.9 180.981 317.542 180.722 317.15 180.523C316.763 180.325 316.346 180.187 315.915 180.116C315.52 180.047 315.117 180.012 314.713 180.009C314.473 180.002 314.356 180 314.208 180H307.722C307.624 180 307.524 180.001 307.405 180.004C307.349 180.005 307.303 180.007 307.202 180.009C306.813 180.012 306.411 180.048 306.013 180.116C305.586 180.188 305.168 180.325 304.779 180.523C304.387 180.723 304.03 180.982 303.72 181.292C303.709 181.301 303.691 181.321 303.603 181.414C303.493 181.518 303.394 181.615 303.298 181.713C303.151 181.857 303.059 181.948 302.958 182.051L300.659 184.347C300.63 184.375 300.601 184.403 300.567 184.437L300.482 184.521C300.391 184.609 300.334 184.666 300.27 184.733L298.217 186.784L298.195 186.806L298.166 186.834L298.114 186.887C298.065 186.937 298.044 186.958 298.021 186.981C297.937 187.065 297.894 187.109 297.845 187.163C297.674 187.33 297.513 187.507 297.364 187.694C297.22 187.847 297.103 188.024 297.019 188.217L296.996 188.28C296.845 188.748 296.845 189.252 296.996 189.72L297.021 189.787C297.106 189.979 297.222 190.156 297.364 190.311C297.52 190.5 297.685 190.681 297.859 190.853L297.934 190.929C297.977 190.973 297.994 190.991 298.021 191.017C298.048 191.044 298.068 191.064 298.116 191.113C298.167 191.164 298.19 191.188 298.22 191.217L300.283 193.283L300.487 193.483ZM313.615 197.308V198L313.614 197.308V196.615H307.724C307.638 196.615 307.548 196.614 307.439 196.612C307.385 196.61 307.342 196.609 307.242 196.606C306.901 196.602 306.572 196.573 306.246 196.519C305.954 196.47 305.672 196.377 305.408 196.243C305.147 196.11 304.908 195.936 304.7 195.728C304.691 195.719 304.674 195.701 304.651 195.677C304.583 195.605 304.577 195.599 304.548 195.572C304.442 195.471 304.366 195.397 304.291 195.319C304.14 195.173 304.046 195.079 303.952 194.983L301.661 192.693C301.64 192.67 301.617 192.648 301.592 192.629L301.458 192.495L301.256 192.299L299.198 190.237C299.171 190.21 299.151 190.19 299.102 190.141C299.052 190.09 299.028 190.066 298.998 190.036C298.977 190.015 298.961 189.999 298.921 189.959L298.882 189.918L298.84 189.876C298.689 189.726 298.551 189.574 298.387 189.377C298.353 189.341 298.325 189.301 298.302 189.258C298.255 189.089 298.255 188.91 298.303 188.74C298.322 188.703 298.348 188.668 298.378 188.637L298.428 188.58C298.551 188.425 298.684 188.278 298.861 188.104C298.894 188.067 298.924 188.036 298.998 187.962C299.025 187.935 299.05 187.91 299.1 187.859L299.147 187.812L299.17 187.789L299.191 187.769L301.26 185.7C301.321 185.637 301.368 185.59 301.485 185.476L301.539 185.422C301.556 185.405 301.571 185.391 301.609 185.359L303.944 183.023C304.041 182.924 304.126 182.84 304.277 182.692C304.37 182.597 304.456 182.513 304.556 182.419C304.581 182.395 304.611 182.364 304.684 182.285C304.906 182.064 305.145 181.89 305.407 181.757C305.67 181.623 305.953 181.53 306.245 181.481C306.571 181.425 306.898 181.396 307.225 181.394L307.251 181.393C307.347 181.391 307.388 181.39 307.438 181.388C307.546 181.386 307.636 181.385 307.722 181.385H314.208C314.339 181.385 314.447 181.387 314.689 181.394C315.032 181.396 315.36 181.425 315.684 181.481C315.978 181.53 316.26 181.623 316.522 181.757C316.785 181.89 317.024 182.063 317.231 182.271C317.439 182.479 317.613 182.718 317.747 182.979C317.877 183.24 317.971 183.525 318.022 183.819C318.074 184.139 318.103 184.469 318.107 184.8C318.11 184.912 318.112 184.993 318.114 185.177L318.115 185.303L318.115 185.59V192.706C318.115 192.854 318.113 193.01 318.107 193.189C318.103 193.531 318.074 193.861 318.021 194.187C317.971 194.475 317.877 194.76 317.744 195.027C317.612 195.281 317.437 195.521 317.229 195.731C317.024 195.937 316.785 196.11 316.524 196.243C316.26 196.377 315.978 196.47 315.687 196.519C315.361 196.573 315.031 196.602 314.7 196.606C314.447 196.613 314.339 196.615 314.208 196.615H313.615V197.308Z"/>
</mask>
<path fill-rule="evenodd" clip-rule="evenodd" d="M300.487 193.483L300.652 193.646L300.729 193.719L302.967 195.956C303.064 196.056 303.166 196.156 303.312 196.299C303.389 196.378 303.474 196.462 303.603 196.585L303.644 196.628C303.698 196.685 303.711 196.699 303.736 196.722C304.032 197.018 304.389 197.277 304.779 197.477C305.17 197.675 305.587 197.812 306.018 197.884C306.414 197.95 306.814 197.986 307.214 197.991C307.305 197.993 307.35 197.995 307.407 197.996C307.526 197.999 307.626 198 307.724 198H313.614H313.615H314.208C314.356 198 314.473 197.998 314.728 197.991C315.118 197.986 315.519 197.95 315.915 197.884C316.346 197.813 316.763 197.675 317.151 197.477C317.542 197.278 317.9 197.019 318.211 196.708C318.519 196.397 318.777 196.042 318.978 195.655C319.176 195.259 319.313 194.844 319.387 194.416C319.452 194.016 319.487 193.617 319.492 193.218C319.497 193.038 319.5 192.869 319.5 192.706V185.294L319.498 185.161C319.496 184.968 319.495 184.882 319.491 184.77C319.487 184.383 319.452 183.984 319.388 183.59C319.313 183.156 319.176 182.741 318.982 182.353C318.779 181.958 318.52 181.602 318.21 181.292C317.9 180.981 317.542 180.722 317.15 180.523C316.763 180.325 316.346 180.187 315.915 180.116C315.52 180.047 315.117 180.012 314.713 180.009C314.473 180.002 314.356 180 314.208 180H307.722C307.624 180 307.524 180.001 307.405 180.004C307.349 180.005 307.303 180.007 307.202 180.009C306.813 180.012 306.411 180.048 306.013 180.116C305.586 180.188 305.168 180.325 304.779 180.523C304.387 180.723 304.03 180.982 303.72 181.292C303.709 181.301 303.691 181.321 303.603 181.414C303.493 181.518 303.394 181.615 303.298 181.713C303.151 181.857 303.059 181.948 302.958 182.051L300.659 184.347C300.63 184.375 300.601 184.403 300.567 184.437L300.482 184.521C300.391 184.609 300.334 184.666 300.27 184.733L298.217 186.784L298.195 186.806L298.166 186.834L298.114 186.887C298.065 186.937 298.044 186.958 298.021 186.981C297.937 187.065 297.894 187.109 297.845 187.163C297.674 187.33 297.513 187.507 297.364 187.694C297.22 187.847 297.103 188.024 297.019 188.217L296.996 188.28C296.845 188.748 296.845 189.252 296.996 189.72L297.021 189.787C297.106 189.979 297.222 190.156 297.364 190.311C297.52 190.5 297.685 190.681 297.859 190.853L297.934 190.929C297.977 190.973 297.994 190.991 298.021 191.017C298.048 191.044 298.068 191.064 298.116 191.113C298.167 191.164 298.19 191.188 298.22 191.217L300.283 193.283L300.487 193.483ZM313.615 197.308V198L313.614 197.308V196.615H307.724C307.638 196.615 307.548 196.614 307.439 196.612C307.385 196.61 307.342 196.609 307.242 196.606C306.901 196.602 306.572 196.573 306.246 196.519C305.954 196.47 305.672 196.377 305.408 196.243C305.147 196.11 304.908 195.936 304.7 195.728C304.691 195.719 304.674 195.701 304.651 195.677C304.583 195.605 304.577 195.599 304.548 195.572C304.442 195.471 304.366 195.397 304.291 195.319C304.14 195.173 304.046 195.079 303.952 194.983L301.661 192.693C301.64 192.67 301.617 192.648 301.592 192.629L301.458 192.495L301.256 192.299L299.198 190.237C299.171 190.21 299.151 190.19 299.102 190.141C299.052 190.09 299.028 190.066 298.998 190.036C298.977 190.015 298.961 189.999 298.921 189.959L298.882 189.918L298.84 189.876C298.689 189.726 298.551 189.574 298.387 189.377C298.353 189.341 298.325 189.301 298.302 189.258C298.255 189.089 298.255 188.91 298.303 188.74C298.322 188.703 298.348 188.668 298.378 188.637L298.428 188.58C298.551 188.425 298.684 188.278 298.861 188.104C298.894 188.067 298.924 188.036 298.998 187.962C299.025 187.935 299.05 187.91 299.1 187.859L299.147 187.812L299.17 187.789L299.191 187.769L301.26 185.7C301.321 185.637 301.368 185.59 301.485 185.476L301.539 185.422C301.556 185.405 301.571 185.391 301.609 185.359L303.944 183.023C304.041 182.924 304.126 182.84 304.277 182.692C304.37 182.597 304.456 182.513 304.556 182.419C304.581 182.395 304.611 182.364 304.684 182.285C304.906 182.064 305.145 181.89 305.407 181.757C305.67 181.623 305.953 181.53 306.245 181.481C306.571 181.425 306.898 181.396 307.225 181.394L307.251 181.393C307.347 181.391 307.388 181.39 307.438 181.388C307.546 181.386 307.636 181.385 307.722 181.385H314.208C314.339 181.385 314.447 181.387 314.689 181.394C315.032 181.396 315.36 181.425 315.684 181.481C315.978 181.53 316.26 181.623 316.522 181.757C316.785 181.89 317.024 182.063 317.231 182.271C317.439 182.479 317.613 182.718 317.747 182.979C317.877 183.24 317.971 183.525 318.022 183.819C318.074 184.139 318.103 184.469 318.107 184.8C318.11 184.912 318.112 184.993 318.114 185.177L318.115 185.303L318.115 185.59V192.706C318.115 192.854 318.113 193.01 318.107 193.189C318.103 193.531 318.074 193.861 318.021 194.187C317.971 194.475 317.877 194.76 317.744 195.027C317.612 195.281 317.437 195.521 317.229 195.731C317.024 195.937 316.785 196.11 316.524 196.243C316.26 196.377 315.978 196.47 315.687 196.519C315.361 196.573 315.031 196.602 314.7 196.606C314.447 196.613 314.339 196.615 314.208 196.615H313.615V197.308Z" fill="#002251"/>
<path d="M300.652 193.646L300.512 193.788L300.515 193.791L300.652 193.646ZM300.487 193.483L300.628 193.341L300.627 193.34L300.487 193.483ZM300.729 193.719L300.87 193.577L300.866 193.573L300.729 193.719ZM302.967 195.956L303.11 195.816L303.108 195.814L302.967 195.956ZM303.312 196.299L303.455 196.159L303.451 196.155L303.312 196.299ZM303.603 196.585L303.748 196.447L303.741 196.44L303.603 196.585ZM303.644 196.628L303.79 196.491L303.789 196.49L303.644 196.628ZM303.736 196.722L303.877 196.581L303.873 196.577L303.736 196.722ZM304.779 197.477L304.688 197.655L304.688 197.655L304.779 197.477ZM306.018 197.884L305.986 198.082L305.986 198.082L306.018 197.884ZM307.214 197.991L307.22 197.791L307.217 197.791L307.214 197.991ZM307.407 197.996L307.403 198.196H307.403L307.407 197.996ZM314.728 197.991L314.725 197.79L314.722 197.791L314.728 197.991ZM315.915 197.884L315.947 198.082L315.948 198.082L315.915 197.884ZM317.151 197.477L317.061 197.298L317.061 197.299L317.151 197.477ZM318.211 196.708L318.352 196.849L318.353 196.849L318.211 196.708ZM318.978 195.655L319.155 195.747L319.156 195.745L318.978 195.655ZM319.387 194.416L319.584 194.45L319.584 194.449L319.387 194.416ZM319.492 193.218L319.292 193.212L319.292 193.215L319.492 193.218ZM319.5 185.294H319.7L319.7 185.291L319.5 185.294ZM319.498 185.161L319.298 185.163V185.163L319.498 185.161ZM319.491 184.77L319.291 184.773L319.291 184.776L319.491 184.77ZM319.388 183.59L319.585 183.558L319.585 183.556L319.388 183.59ZM318.982 182.353L319.161 182.264L319.16 182.262L318.982 182.353ZM318.21 181.292L318.069 181.433L318.069 181.433L318.21 181.292ZM317.15 180.523L317.059 180.701L317.06 180.701L317.15 180.523ZM315.915 180.116L315.881 180.313L315.882 180.313L315.915 180.116ZM314.713 180.009L314.707 180.209L314.711 180.209L314.713 180.009ZM307.405 180.004L307.401 179.804L307.405 180.004ZM307.202 180.009L307.203 180.21L307.208 180.209L307.202 180.009ZM306.013 180.116L306.046 180.314L306.047 180.313L306.013 180.116ZM304.779 180.523L304.688 180.344L304.688 180.345L304.779 180.523ZM303.72 181.292L303.855 181.44L303.861 181.433L303.72 181.292ZM303.603 181.414L303.741 181.56L303.75 181.551L303.603 181.414ZM303.298 181.713L303.438 181.857L303.441 181.853L303.298 181.713ZM302.958 182.051L303.099 182.193L303.102 182.191L302.958 182.051ZM300.659 184.347L300.797 184.491L300.8 184.488L300.659 184.347ZM300.567 184.437L300.426 184.294L300.426 184.295L300.567 184.437ZM300.482 184.521L300.621 184.664L300.623 184.663L300.482 184.521ZM300.27 184.733L300.411 184.875L300.414 184.871L300.27 184.733ZM298.217 186.784L298.357 186.927L298.358 186.926L298.217 186.784ZM298.195 186.806L298.054 186.664L298.053 186.665L298.195 186.806ZM298.166 186.834L298.025 186.693L298.024 186.694L298.166 186.834ZM298.114 186.887L297.972 186.746L297.972 186.747L298.114 186.887ZM298.021 186.981L297.88 186.839L297.88 186.84L298.021 186.981ZM297.845 187.163L297.985 187.306L297.993 187.297L297.845 187.163ZM297.364 187.694L297.509 187.831L297.515 187.825L297.52 187.819L297.364 187.694ZM297.019 188.217L296.836 188.137L296.832 188.146L297.019 188.217ZM296.996 188.28L296.808 188.209L296.805 188.218L296.996 188.28ZM296.996 189.72L296.805 189.782L296.809 189.791L296.996 189.72ZM297.021 189.787L296.834 189.859L296.838 189.868L297.021 189.787ZM297.364 190.311L297.519 190.183L297.511 190.175L297.364 190.311ZM297.859 190.853L298.002 190.713L298 190.711L297.859 190.853ZM297.934 190.929L297.791 191.069L297.792 191.07L297.934 190.929ZM298.021 191.017L297.88 191.159L297.88 191.159L298.021 191.017ZM298.116 191.113L298.259 190.973L298.259 190.973L298.116 191.113ZM298.22 191.217L298.361 191.076L298.361 191.076L298.22 191.217ZM300.283 193.283L300.141 193.424L300.143 193.426L300.283 193.283ZM313.614 197.308H313.414L313.414 197.308L313.614 197.308ZM313.614 196.615H313.814V196.415H313.614V196.615ZM307.439 196.612L307.444 196.412H307.444L307.439 196.612ZM307.242 196.606L307.248 196.406L307.245 196.406L307.242 196.606ZM306.246 196.519L306.213 196.716L306.213 196.716L306.246 196.519ZM305.408 196.243L305.317 196.421L305.317 196.421L305.408 196.243ZM304.7 195.728L304.841 195.587L304.84 195.586L304.7 195.728ZM304.651 195.677L304.796 195.54L304.796 195.54L304.651 195.677ZM304.548 195.572L304.409 195.717L304.413 195.72L304.548 195.572ZM304.291 195.319L304.434 195.18L304.43 195.176L304.291 195.319ZM303.952 194.983L304.095 194.843L304.093 194.841L303.952 194.983ZM301.661 192.693L301.516 192.83L301.52 192.834L301.661 192.693ZM301.592 192.629L301.452 192.771L301.458 192.777L301.465 192.783L301.592 192.629ZM301.458 192.495L301.599 192.353L301.598 192.352L301.458 192.495ZM301.256 192.299L301.115 192.44L301.117 192.442L301.256 192.299ZM299.198 190.237L299.339 190.096L299.339 190.095L299.198 190.237ZM299.102 190.141L298.96 190.281L298.96 190.281L299.102 190.141ZM298.998 190.036L298.857 190.178L298.857 190.178L298.998 190.036ZM298.921 189.959L298.779 190.099L298.779 190.099L298.921 189.959ZM298.882 189.918L299.024 189.778L299.024 189.778L298.882 189.918ZM298.84 189.876L298.983 189.736L298.981 189.734L298.84 189.876ZM298.387 189.377L298.541 189.249L298.532 189.239L298.387 189.377ZM298.302 189.258L298.11 189.312L298.115 189.332L298.125 189.35L298.302 189.258ZM298.303 188.74L298.125 188.648L298.116 188.667L298.11 188.686L298.303 188.74ZM298.378 188.637L298.52 188.778L298.527 188.77L298.378 188.637ZM298.428 188.58L298.578 188.713L298.585 188.704L298.428 188.58ZM298.861 188.104L299.002 188.247L299.01 188.237L298.861 188.104ZM298.998 187.962L298.857 187.82L298.857 187.82L298.998 187.962ZM299.1 187.859L298.958 187.718L298.958 187.719L299.1 187.859ZM299.147 187.812L299.006 187.67L299.005 187.671L299.147 187.812ZM299.17 187.789L299.029 187.647L299.029 187.647L299.17 187.789ZM299.191 187.769L299.331 187.911L299.332 187.91L299.191 187.769ZM301.26 185.7L301.402 185.842L301.405 185.839L301.26 185.7ZM301.485 185.476L301.625 185.619L301.626 185.618L301.485 185.476ZM301.539 185.422L301.399 185.279L301.399 185.28L301.539 185.422ZM301.609 185.359L301.736 185.514L301.744 185.508L301.75 185.501L301.609 185.359ZM303.944 183.023L304.086 183.165L304.088 183.163L303.944 183.023ZM304.277 182.692L304.417 182.836L304.42 182.832L304.277 182.692ZM304.556 182.419L304.693 182.564L304.694 182.564L304.556 182.419ZM304.684 182.285L304.543 182.143L304.538 182.149L304.684 182.285ZM305.407 181.757L305.317 181.578L305.316 181.578L305.407 181.757ZM306.245 181.481L306.278 181.679L306.279 181.678L306.245 181.481ZM307.225 181.394L307.227 181.594L307.231 181.594L307.225 181.394ZM307.251 181.393L307.246 181.193H307.246L307.251 181.393ZM307.438 181.388L307.433 181.188L307.438 181.388ZM314.689 181.394L314.684 181.594L314.688 181.594L314.689 181.394ZM315.684 181.481L315.65 181.678L315.651 181.678L315.684 181.481ZM316.522 181.757L316.432 181.935L316.432 181.935L316.522 181.757ZM317.231 182.271L317.089 182.412L317.09 182.412L317.231 182.271ZM317.747 182.979L317.926 182.889L317.925 182.888L317.747 182.979ZM318.022 183.819L318.22 183.787L318.219 183.785L318.022 183.819ZM318.107 184.8L317.907 184.802L317.907 184.805L318.107 184.8ZM318.114 185.177L317.914 185.18L317.914 185.18L318.114 185.177ZM318.115 185.303L318.315 185.304L318.315 185.301L318.115 185.303ZM318.115 185.59L317.915 185.59V185.59H318.115ZM318.107 193.189L317.907 193.183L317.907 193.186L318.107 193.189ZM318.021 194.187L318.218 194.221L318.218 194.219L318.021 194.187ZM317.744 195.027L317.921 195.119L317.923 195.116L317.744 195.027ZM317.229 195.731L317.371 195.872L317.371 195.872L317.229 195.731ZM316.524 196.243L316.433 196.064L316.433 196.065L316.524 196.243ZM315.687 196.519L315.72 196.716L315.72 196.716L315.687 196.519ZM314.7 196.606L314.697 196.406L314.694 196.406L314.7 196.606ZM313.615 196.615V196.415H313.415V196.615H313.615ZM300.793 193.504L300.628 193.341L300.347 193.625L300.512 193.788L300.793 193.504ZM300.866 193.573L300.79 193.501L300.515 193.791L300.591 193.864L300.866 193.573ZM303.108 195.814L300.87 193.577L300.588 193.86L302.826 196.097L303.108 195.814ZM303.451 196.155C303.306 196.014 303.206 195.914 303.11 195.816L302.824 196.095C302.923 196.197 303.026 196.299 303.172 196.442L303.451 196.155ZM303.741 196.44C303.613 196.318 303.53 196.236 303.455 196.159L303.168 196.438C303.248 196.52 303.336 196.606 303.465 196.729L303.741 196.44ZM303.789 196.49L303.748 196.447L303.458 196.723L303.499 196.766L303.789 196.49ZM303.873 196.577C303.853 196.558 303.844 196.548 303.79 196.491L303.499 196.765C303.552 196.822 303.569 196.84 303.599 196.868L303.873 196.577ZM304.87 197.298C304.498 197.108 304.158 196.861 303.877 196.581L303.595 196.864C303.906 197.175 304.28 197.446 304.688 197.655L304.87 197.298ZM306.051 197.687C305.641 197.619 305.242 197.488 304.87 197.298L304.688 197.655C305.098 197.863 305.534 198.006 305.986 198.082L306.051 197.687ZM307.217 197.791C306.826 197.786 306.437 197.751 306.051 197.687L305.986 198.082C306.391 198.149 306.801 198.186 307.212 198.191L307.217 197.791ZM307.412 197.796C307.356 197.795 307.31 197.793 307.22 197.791L307.209 198.191C307.299 198.193 307.345 198.194 307.403 198.196L307.412 197.796ZM307.724 197.8C307.628 197.8 307.529 197.799 307.412 197.796L307.403 198.196C307.522 198.199 307.624 198.2 307.724 198.2V197.8ZM313.614 197.8H307.724V198.2H313.614V197.8ZM313.615 197.8H313.614V198.2H313.615V197.8ZM314.208 197.8H313.615V198.2H314.208V197.8ZM314.722 197.791C314.467 197.798 314.353 197.8 314.208 197.8V198.2C314.359 198.2 314.478 198.198 314.733 198.19L314.722 197.791ZM315.882 197.687C315.496 197.751 315.105 197.786 314.725 197.791L314.73 198.19C315.131 198.186 315.542 198.149 315.947 198.082L315.882 197.687ZM317.061 197.299C316.69 197.488 316.293 197.619 315.882 197.687L315.948 198.082C316.399 198.006 316.835 197.862 317.242 197.655L317.061 197.299ZM318.069 196.566C317.773 196.862 317.433 197.11 317.061 197.298L317.242 197.655C317.652 197.447 318.027 197.175 318.352 196.849L318.069 196.566ZM318.8 195.563C318.609 195.932 318.363 196.27 318.069 196.567L318.353 196.849C318.676 196.523 318.946 196.152 319.155 195.747L318.8 195.563ZM319.189 194.382C319.119 194.791 318.989 195.187 318.799 195.565L319.156 195.745C319.364 195.331 319.506 194.898 319.584 194.45L319.189 194.382ZM319.292 193.215C319.287 193.605 319.253 193.993 319.189 194.384L319.584 194.449C319.651 194.038 319.686 193.63 319.692 193.221L319.292 193.215ZM319.3 192.706C319.3 192.867 319.297 193.034 319.292 193.212L319.692 193.224C319.697 193.042 319.7 192.872 319.7 192.706H319.3ZM319.3 185.294V192.706H319.7V185.294H319.3ZM319.298 185.163L319.3 185.296L319.7 185.291L319.698 185.159L319.298 185.163ZM319.291 184.776C319.295 184.886 319.296 184.971 319.298 185.163L319.698 185.159C319.696 184.966 319.695 184.878 319.691 184.764L319.291 184.776ZM319.19 183.622C319.253 184.007 319.287 184.395 319.291 184.773L319.691 184.768C319.686 184.37 319.651 183.962 319.585 183.558L319.19 183.622ZM318.803 182.443C318.989 182.813 319.119 183.209 319.191 183.624L319.585 183.556C319.506 183.103 319.364 182.669 319.161 182.264L318.803 182.443ZM318.069 181.433C318.364 181.728 318.611 182.067 318.804 182.444L319.16 182.262C318.948 181.848 318.676 181.475 318.352 181.151L318.069 181.433ZM317.06 180.701C317.433 180.89 317.773 181.138 318.069 181.433L318.352 181.151C318.027 180.825 317.652 180.553 317.241 180.344L317.06 180.701ZM315.882 180.313C316.293 180.381 316.69 180.512 317.059 180.701L317.241 180.345C316.835 180.138 316.399 179.994 315.948 179.918L315.882 180.313ZM314.711 180.209C315.105 180.212 315.497 180.246 315.881 180.313L315.949 179.919C315.544 179.849 315.129 179.812 314.714 179.809L314.711 180.209ZM314.208 180.2C314.353 180.2 314.467 180.202 314.707 180.209L314.718 179.809C314.478 179.802 314.359 179.8 314.208 179.8V180.2ZM307.722 180.2H314.208V179.8H307.722V180.2ZM307.41 180.204C307.528 180.201 307.626 180.2 307.722 180.2V179.8C307.622 179.8 307.52 179.801 307.401 179.804L307.41 180.204ZM307.208 180.209C307.308 180.207 307.354 180.205 307.41 180.204L307.401 179.804C307.343 179.806 307.297 179.807 307.197 179.81L307.208 180.209ZM306.047 180.313C306.434 180.246 306.826 180.212 307.203 180.209L307.201 179.809C306.801 179.812 306.387 179.849 305.979 179.919L306.047 180.313ZM304.869 180.701C305.241 180.512 305.639 180.381 306.046 180.314L305.98 179.919C305.533 179.994 305.096 180.137 304.688 180.344L304.869 180.701ZM303.861 181.433C304.157 181.138 304.497 180.891 304.87 180.701L304.688 180.345C304.277 180.554 303.904 180.826 303.579 181.15L303.861 181.433ZM303.75 181.551C303.793 181.504 303.819 181.477 303.835 181.46C303.852 181.442 303.855 181.439 303.855 181.439L303.586 181.144C303.567 181.161 303.54 181.189 303.457 181.277L303.75 181.551ZM303.441 181.853C303.534 181.757 303.632 181.662 303.741 181.56L303.466 181.269C303.354 181.375 303.253 181.473 303.155 181.574L303.441 181.853ZM303.102 182.191C303.201 182.089 303.291 182 303.438 181.857L303.158 181.57C303.01 181.714 302.918 181.806 302.815 181.912L303.102 182.191ZM300.8 184.488L303.099 182.193L302.817 181.91L300.517 184.205L300.8 184.488ZM300.707 184.579C300.741 184.546 300.769 184.518 300.797 184.491L300.52 184.202C300.49 184.231 300.46 184.26 300.426 184.294L300.707 184.579ZM300.623 184.663L300.707 184.579L300.426 184.295L300.341 184.379L300.623 184.663ZM300.414 184.871C300.476 184.807 300.531 184.751 300.621 184.664L300.342 184.377C300.251 184.466 300.191 184.525 300.125 184.595L300.414 184.871ZM298.358 186.926L300.411 184.875L300.128 184.592L298.076 186.643L298.358 186.926ZM298.335 186.949L298.357 186.927L298.077 186.642L298.054 186.664L298.335 186.949ZM298.308 186.976L298.336 186.948L298.053 186.665L298.025 186.693L298.308 186.976ZM298.256 187.028L298.308 186.975L298.024 186.694L297.972 186.746L298.256 187.028ZM298.162 187.123C298.186 187.099 298.208 187.077 298.257 187.027L297.972 186.747C297.923 186.797 297.903 186.817 297.88 186.839L298.162 187.123ZM297.993 187.297C298.038 187.248 298.079 187.206 298.162 187.122L297.88 186.84C297.795 186.924 297.749 186.971 297.697 187.029L297.993 187.297ZM297.52 187.819C297.664 187.639 297.82 187.467 297.985 187.306L297.705 187.02C297.528 187.193 297.362 187.376 297.208 187.569L297.52 187.819ZM297.203 188.297C297.277 188.125 297.381 187.967 297.509 187.831L297.218 187.557C297.058 187.727 296.929 187.923 296.836 188.137L297.203 188.297ZM297.183 188.35L297.206 188.288L296.832 188.146L296.808 188.209L297.183 188.35ZM297.186 189.659C297.048 189.23 297.048 188.77 297.186 188.341L296.805 188.218C296.641 188.727 296.641 189.273 296.805 189.782L297.186 189.659ZM297.208 189.716L297.182 189.649L296.809 189.791L296.834 189.859L297.208 189.716ZM297.511 190.175C297.384 190.037 297.28 189.879 297.204 189.707L296.838 189.868C296.932 190.08 297.06 190.276 297.217 190.446L297.511 190.175ZM298 190.711C297.831 190.543 297.67 190.367 297.519 190.183L297.21 190.438C297.37 190.632 297.54 190.818 297.718 190.995L298 190.711ZM298.077 190.789L298.002 190.713L297.717 190.993L297.791 191.069L298.077 190.789ZM298.163 190.876C298.136 190.85 298.119 190.832 298.077 190.789L297.792 191.07C297.834 191.113 297.852 191.131 297.88 191.159L298.163 190.876ZM298.259 190.973C298.21 190.923 298.189 190.902 298.162 190.875L297.88 191.159C297.906 191.185 297.925 191.204 297.974 191.253L298.259 190.973ZM298.361 191.076C298.332 191.047 298.309 191.024 298.259 190.973L297.974 191.253C298.024 191.305 298.049 191.329 298.079 191.359L298.361 191.076ZM300.424 193.142L298.361 191.076L298.078 191.359L300.141 193.424L300.424 193.142ZM300.627 193.34L300.423 193.14L300.143 193.426L300.348 193.626L300.627 193.34ZM313.815 198V197.308H313.415V198H313.815ZM313.414 197.308L313.415 198.001L313.815 197.999L313.814 197.307L313.414 197.308ZM313.414 196.615V197.308H313.814V196.615H313.414ZM307.724 196.815H313.614V196.415H307.724V196.815ZM307.435 196.812C307.545 196.814 307.636 196.815 307.724 196.815V196.415C307.64 196.415 307.552 196.414 307.444 196.412L307.435 196.812ZM307.237 196.806C307.336 196.809 307.38 196.81 307.435 196.812L307.444 196.412C307.39 196.41 307.347 196.409 307.248 196.406L307.237 196.806ZM306.213 196.716C306.549 196.772 306.889 196.802 307.24 196.806L307.245 196.406C306.914 196.402 306.595 196.374 306.279 196.321L306.213 196.716ZM305.317 196.421C305.599 196.564 305.901 196.664 306.213 196.716L306.279 196.321C306.007 196.276 305.744 196.189 305.498 196.064L305.317 196.421ZM304.559 195.87C304.782 196.092 305.038 196.278 305.317 196.421L305.499 196.065C305.257 195.941 305.035 195.78 304.841 195.587L304.559 195.87ZM304.505 195.814C304.528 195.838 304.548 195.859 304.56 195.871L304.84 195.586C304.834 195.58 304.819 195.564 304.796 195.54L304.505 195.814ZM304.413 195.72C304.436 195.741 304.437 195.742 304.505 195.814L304.796 195.54C304.729 195.469 304.718 195.457 304.682 195.424L304.413 195.72ZM304.148 195.459C304.225 195.539 304.303 195.615 304.409 195.717L304.686 195.428C304.581 195.328 304.507 195.255 304.434 195.18L304.148 195.459ZM303.809 195.122C303.904 195.22 304 195.315 304.151 195.462L304.43 195.176C304.281 195.03 304.187 194.937 304.095 194.843L303.809 195.122ZM301.52 192.834L303.811 195.124L304.093 194.841L301.802 192.551L301.52 192.834ZM301.465 192.783C301.483 192.798 301.5 192.813 301.516 192.83L301.806 192.555C301.779 192.526 301.75 192.499 301.72 192.474L301.465 192.783ZM301.317 192.638L301.452 192.771L301.733 192.486L301.599 192.353L301.317 192.638ZM301.117 192.442L301.318 192.639L301.598 192.352L301.396 192.156L301.117 192.442ZM299.056 190.378L301.115 192.44L301.398 192.157L299.339 190.096L299.056 190.378ZM298.96 190.281C299.008 190.331 299.029 190.351 299.057 190.379L299.339 190.095C299.312 190.069 299.293 190.05 299.244 190L298.96 190.281ZM298.857 190.178C298.886 190.207 298.909 190.23 298.96 190.281L299.244 190C299.194 189.949 299.17 189.924 299.139 189.894L298.857 190.178ZM298.779 190.099C298.819 190.139 298.835 190.156 298.857 190.178L299.14 189.895C299.119 189.874 299.104 189.859 299.064 189.818L298.779 190.099ZM298.739 190.058L298.779 190.099L299.064 189.818L299.024 189.778L298.739 190.058ZM298.698 190.016L298.739 190.058L299.024 189.778L298.983 189.736L298.698 190.016ZM298.233 189.505C298.4 189.706 298.543 189.862 298.7 190.018L298.981 189.734C298.835 189.589 298.701 189.442 298.541 189.249L298.233 189.505ZM298.125 189.35C298.156 189.41 298.195 189.466 298.242 189.515L298.532 189.239C298.511 189.217 298.494 189.192 298.48 189.166L298.125 189.35ZM298.11 188.686C298.053 188.891 298.053 189.107 298.11 189.312L298.495 189.204C298.458 189.07 298.458 188.928 298.495 188.794L298.11 188.686ZM298.235 188.497C298.191 188.541 298.154 188.593 298.125 188.648L298.48 188.833C298.491 188.813 298.504 188.794 298.52 188.778L298.235 188.497ZM298.278 188.448L298.228 188.505L298.527 188.77L298.578 188.713L298.278 188.448ZM298.721 187.961C298.539 188.14 298.4 188.293 298.271 188.456L298.585 188.704C298.702 188.557 298.829 188.416 299.001 188.247L298.721 187.961ZM298.857 187.82C298.783 187.894 298.749 187.929 298.712 187.971L299.01 188.237C299.039 188.205 299.066 188.177 299.14 188.103L298.857 187.82ZM298.958 187.719C298.908 187.769 298.883 187.794 298.857 187.82L299.139 188.104C299.167 188.076 299.193 188.05 299.243 188L298.958 187.719ZM299.005 187.671L298.958 187.718L299.242 188L299.289 187.952L299.005 187.671ZM299.029 187.647L299.006 187.67L299.288 187.953L299.311 187.931L299.029 187.647ZM299.05 187.626L299.029 187.647L299.31 187.931L299.331 187.911L299.05 187.626ZM301.119 185.559L299.049 187.627L299.332 187.91L301.402 185.842L301.119 185.559ZM301.345 185.333C301.228 185.447 301.179 185.496 301.116 185.562L301.405 185.839C301.463 185.778 301.508 185.733 301.625 185.619L301.345 185.333ZM301.399 185.28L301.344 185.334L301.626 185.618L301.68 185.564L301.399 185.28ZM301.482 185.205C301.438 185.241 301.419 185.26 301.399 185.28L301.68 185.564C301.688 185.556 301.694 185.551 301.701 185.544C301.709 185.537 301.719 185.528 301.736 185.514L301.482 185.205ZM303.803 182.882L301.468 185.218L301.75 185.501L304.086 183.165L303.803 182.882ZM304.137 182.549C303.986 182.697 303.9 182.782 303.801 182.884L304.088 183.163C304.183 183.065 304.266 182.983 304.417 182.836L304.137 182.549ZM304.419 182.273C304.317 182.37 304.229 182.455 304.134 182.553L304.42 182.832C304.511 182.739 304.595 182.657 304.693 182.564L304.419 182.273ZM304.538 182.149C304.463 182.229 304.438 182.255 304.418 182.274L304.694 182.564C304.724 182.535 304.758 182.499 304.83 182.422L304.538 182.149ZM305.316 181.578C305.035 181.722 304.779 181.908 304.543 182.143L304.825 182.427C305.033 182.22 305.256 182.059 305.498 181.935L305.316 181.578ZM306.212 181.284C305.9 181.336 305.597 181.436 305.317 181.578L305.498 181.935C305.742 181.811 306.006 181.724 306.278 181.679L306.212 181.284ZM307.224 181.194C306.886 181.196 306.548 181.226 306.211 181.284L306.279 181.678C306.595 181.624 306.91 181.596 307.227 181.594L307.224 181.194ZM307.246 181.193L307.22 181.194L307.231 181.594L307.256 181.593L307.246 181.193ZM307.433 181.188C307.383 181.19 307.342 181.191 307.246 181.193L307.256 181.593C307.352 181.591 307.393 181.59 307.442 181.588L307.433 181.188ZM307.722 181.185C307.634 181.185 307.543 181.186 307.433 181.188L307.442 181.588C307.55 181.586 307.638 181.585 307.722 181.585V181.185ZM314.208 181.185H307.722V181.585H314.208V181.185ZM314.695 181.194C314.452 181.187 314.342 181.185 314.208 181.185V181.585C314.336 181.585 314.442 181.587 314.684 181.594L314.695 181.194ZM315.718 181.284C315.383 181.226 315.044 181.196 314.69 181.194L314.688 181.594C315.02 181.596 315.337 181.624 315.65 181.678L315.718 181.284ZM316.613 181.579C316.332 181.435 316.031 181.336 315.716 181.283L315.651 181.678C315.925 181.724 316.187 181.81 316.432 181.935L316.613 181.579ZM317.372 182.129C317.15 181.907 316.894 181.721 316.613 181.578L316.432 181.935C316.676 182.059 316.897 182.22 317.089 182.412L317.372 182.129ZM317.925 182.888C317.781 182.608 317.595 182.352 317.372 182.129L317.09 182.412C317.283 182.605 317.444 182.827 317.569 183.07L317.925 182.888ZM318.219 183.785C318.165 183.472 318.065 183.168 317.926 182.889L317.568 183.068C317.69 183.312 317.777 183.578 317.825 183.854L318.219 183.785ZM318.307 184.797C318.303 184.457 318.273 184.117 318.22 183.787L317.825 183.852C317.875 184.161 317.903 184.481 317.907 184.802L318.307 184.797ZM318.314 185.175C318.312 184.99 318.31 184.908 318.307 184.794L317.907 184.805C317.91 184.916 317.912 184.996 317.914 185.18L318.314 185.175ZM318.315 185.301L318.314 185.175L317.914 185.18L317.915 185.306L318.315 185.301ZM318.315 185.59L318.315 185.304L317.915 185.303L317.915 185.59L318.315 185.59ZM318.315 192.706V185.59H317.915V192.706H318.315ZM318.307 193.195C318.313 193.014 318.315 192.857 318.315 192.706H317.915C317.915 192.852 317.913 193.005 317.907 193.183L318.307 193.195ZM318.218 194.219C318.273 193.883 318.303 193.543 318.307 193.191L317.907 193.186C317.903 193.519 317.875 193.839 317.824 194.155L318.218 194.219ZM317.923 195.116C318.065 194.832 318.165 194.528 318.218 194.221L317.824 194.153C317.778 194.421 317.69 194.688 317.565 194.937L317.923 195.116ZM317.371 195.872C317.593 195.648 317.78 195.391 317.921 195.119L317.566 194.935C317.444 195.171 317.281 195.395 317.087 195.59L317.371 195.872ZM316.614 196.421C316.894 196.279 317.15 196.093 317.371 195.872L317.088 195.589C316.897 195.78 316.676 195.941 316.433 196.064L316.614 196.421ZM315.72 196.716C316.031 196.664 316.332 196.565 316.614 196.421L316.433 196.065C316.187 196.19 315.925 196.276 315.654 196.321L315.72 196.716ZM314.702 196.806C315.043 196.802 315.384 196.772 315.72 196.716L315.654 196.321C315.338 196.374 315.018 196.402 314.697 196.406L314.702 196.806ZM314.208 196.815C314.342 196.815 314.452 196.813 314.705 196.806L314.694 196.406C314.442 196.413 314.336 196.415 314.208 196.415V196.815ZM313.615 196.815H314.208V196.415H313.615V196.815ZM313.815 197.308V196.615H313.415V197.308H313.815Z" fill="#002251" mask="url(#path-2-outside-1_70_673)"/>
<path fill-rule="evenodd" clip-rule="evenodd" d="M129 172C129 169.239 131.239 167 134 167H241C243.761 167 246 169.239 246 172V208C246 210.761 243.761 213 241 213H134C131.239 213 129 210.761 129 208V172Z" fill="white"/>
<path d="M187.5 200.249C191.513 200.249 193.821 196.848 193.821 190.909C193.821 185.014 191.477 181.57 187.5 181.57C183.523 181.57 181.179 185.014 181.179 190.909C181.179 196.848 183.487 200.249 187.5 200.249ZM187.5 198.295C184.854 198.295 183.31 195.641 183.31 190.909C183.31 186.186 184.872 183.487 187.5 183.487C190.128 183.487 191.69 186.186 191.69 190.909C191.69 195.641 190.146 198.295 187.5 198.295Z" fill="#002251"/>
<path fill-rule="evenodd" clip-rule="evenodd" d="M252 118C252 115.239 254.239 113 257 113H364C366.761 113 369 115.239 369 118V155C369 157.761 366.761 160 364 160H257C254.239 160 252 157.761 252 155V118Z" fill="white"/>
<path d="M310.37 121.07C306.677 121.025 304.298 123.804 304.298 127.142C304.298 130.658 306.89 133.179 310.015 133.179C311.897 133.179 313.495 132.256 314.489 130.764H314.632C314.632 135.239 312.891 137.795 310.086 137.795C308.168 137.795 306.997 136.588 306.606 134.919H304.44C304.866 137.795 307.032 139.749 310.086 139.749C314.17 139.749 316.691 136.126 316.691 129.663C316.691 122.987 313.353 121.105 310.37 121.07ZM310.37 123.023C312.643 123.023 314.312 124.976 314.312 127.107C314.312 129.273 312.536 131.226 310.299 131.226C308.062 131.226 306.428 129.415 306.428 127.142C306.428 124.869 308.133 123.023 310.37 123.023Z" fill="#002251"/>
<path fill-rule="evenodd" clip-rule="evenodd" d="M129 118C129 115.239 131.239 113 134 113H241C243.761 113 246 115.239 246 118V155C246 157.761 243.761 160 241 160H134C131.239 160 129 157.761 129 155V118Z" fill="white"/>
<path d="M187.503 139.749C191.134 139.749 193.665 137.627 193.682 134.67C193.665 132.371 192.129 130.418 190.167 130.054V129.947C191.871 129.504 192.99 127.835 193.008 125.899C192.99 123.129 190.664 121.07 187.503 121.07C184.307 121.07 181.981 123.129 181.999 125.899C181.981 127.835 183.1 129.504 184.84 129.947V130.054C182.842 130.418 181.307 132.371 181.324 134.67C181.307 137.627 183.837 139.749 187.503 139.749ZM187.503 137.795C185.009 137.795 183.473 136.517 183.491 134.564C183.473 132.513 185.168 131.048 187.503 131.048C189.803 131.048 191.498 132.513 191.516 134.564C191.498 136.517 189.962 137.795 187.503 137.795ZM187.503 129.166C185.515 129.166 184.112 127.923 184.13 126.041C184.112 124.195 185.461 122.987 187.503 122.987C189.51 122.987 190.859 124.195 190.877 126.041C190.859 127.923 189.456 129.166 187.503 129.166Z" fill="#002251"/>
<path fill-rule="evenodd" clip-rule="evenodd" d="M6 118C6 115.239 8.23858 113 11 113H118C120.761 113 123 115.239 123 118V155C123 157.761 120.761 160 118 160H11C8.23858 160 6 157.761 6 155V118Z" fill="white"/>
<path d="M59.8092 139.5H62.1174L70.214 123.378V121.318H58.5663V123.271H67.9413V123.413L59.8092 139.5Z" fill="#002251"/>
<path fill-rule="evenodd" clip-rule="evenodd" d="M252 64C252 61.2386 254.239 59 257 59H364C366.761 59 369 61.2386 369 64V101C369 103.761 366.761 106 364 106H257C254.239 106 252 103.761 252 101V64Z" fill="white"/>
<path d="M310.619 85.7486C314.294 85.793 316.691 83.0231 316.691 79.6406C316.691 76.125 314.09 73.6037 310.974 73.6037C309.101 73.6037 307.494 74.5181 306.499 76.0185H306.357C306.366 71.5884 308.089 69.0227 310.903 69.0227C312.82 69.0227 313.975 70.2301 314.383 71.8636H316.549C316.105 69.0405 313.957 67.0696 310.903 67.0696C306.81 67.0696 304.298 70.6918 304.298 77.1193C304.298 83.8398 307.636 85.7131 310.619 85.7486ZM310.619 83.7955C308.337 83.7955 306.668 81.8512 306.677 79.6761C306.686 77.5011 308.435 75.5568 310.69 75.5568C312.918 75.5568 314.561 77.3857 314.561 79.6406C314.561 81.9489 312.847 83.7955 310.619 83.7955Z" fill="#002251"/>
<path fill-rule="evenodd" clip-rule="evenodd" d="M129 64C129 61.2386 131.239 59 134 59H241C243.761 59 246 61.2386 246 64V101C246 103.761 243.761 106 241 106H134C131.239 106 129 103.761 129 101V64Z" fill="white"/>
<path d="M187.459 85.7486C190.921 85.7486 193.46 83.1918 193.46 79.7116C193.46 76.1871 191.01 73.6037 187.672 73.6037C186.447 73.6037 185.257 74.0387 184.511 74.6335H184.405L185.044 69.2713H192.644V67.3182H183.198L182.097 76.267L184.156 76.5156C184.911 75.9741 186.198 75.5835 187.317 75.5923C189.634 75.6101 191.33 77.3679 191.33 79.7472C191.33 82.082 189.696 83.7955 187.459 83.7955C185.595 83.7955 184.112 82.5969 183.943 80.9545H181.813C181.946 83.7244 184.334 85.7486 187.459 85.7486Z" fill="#002251"/>
<path fill-rule="evenodd" clip-rule="evenodd" d="M6 64C6 61.2386 8.23858 59 11 59H118C120.761 59 123 61.2386 123 64V101C123 103.761 120.761 106 118 106H11C8.23858 106 6 103.761 6 101V64Z" fill="white"/>
<path d="M57.9359 81.7713H66.4942V85.5H68.5894V81.7713H71.0752V79.8182H68.5894V67.3182H65.926L57.9359 79.9602V81.7713ZM66.4942 79.8182H60.3152V79.6761L66.3521 70.1236H66.4942V79.8182Z" fill="#002251"/>
<path fill-rule="evenodd" clip-rule="evenodd" d="M252 11C252 8.23858 254.239 6 257 6H364C366.761 6 369 8.23858 369 11V47C369 49.7614 366.761 52 364 52H257C254.239 52 252 49.7614 252 47V11Z" fill="white"/>
<path d="M310.567 32.2486C314.091 32.2486 316.71 30.038 316.71 27.0639C316.71 24.7557 315.343 23.0778 313.052 22.696V22.554C314.89 21.9947 316.035 20.4854 316.035 18.4347C316.035 15.8601 314.002 13.5696 310.638 13.5696C307.495 13.5696 304.885 15.505 304.778 18.3636H306.909C306.989 16.5526 308.711 15.4872 310.602 15.4872C312.608 15.4872 313.905 16.7035 313.905 18.5412C313.905 20.4588 312.404 21.7017 310.247 21.7017H308.791V23.6548H310.247C313.008 23.6548 314.544 25.0575 314.544 27.0639C314.544 28.9904 312.866 30.2955 310.531 30.2955C308.427 30.2955 306.758 29.2124 306.625 27.4545H304.388C304.521 30.3132 307.042 32.2486 310.567 32.2486Z" fill="#002251"/>
<path fill-rule="evenodd" clip-rule="evenodd" d="M129 11C129 8.23858 131.239 6 134 6H241C243.761 6 246 8.23858 246 11V47C246 49.7614 243.761 52 241 52H134C131.239 52 129 49.7614 129 47V11Z" fill="white"/>
<path d="M181.814 32H193.284V30.0469H184.832V29.9048L188.916 25.5369C192.041 22.19 192.964 20.6275 192.964 18.6122C192.964 15.8068 190.692 13.5696 187.496 13.5696C184.308 13.5696 181.885 15.7358 181.885 18.9318H183.98C183.98 16.8633 185.32 15.4872 187.425 15.4872C189.395 15.4872 190.905 16.6946 190.905 18.6122C190.905 20.2901 189.919 21.533 187.815 23.8324L181.814 30.402V32Z" fill="#002251"/>
<path fill-rule="evenodd" clip-rule="evenodd" d="M6 11C6 8.23858 8.23858 6 11 6H118C120.761 6 123 8.23858 123 11V47C123 49.7614 120.761 52 118 52H11C8.23858 52 6 49.7614 6 47V11Z" fill="white"/>
<path d="M66.9636 13.8182H64.7619L60.2164 16.8366V19.0739L64.6554 16.1264H64.7619V32H66.9636V13.8182Z" fill="#002251"/>
<defs>
<filter id="filter0_b_70_673" x="-54.3656" y="-54.3656" width="483.731" height="321.731" filterUnits="userSpaceOnUse" color-interpolation-filters="sRGB">
<feFlood flood-opacity="0" result="BackgroundImageFix"/>
<feGaussianBlur in="BackgroundImage" stdDeviation="27.1828"/>
<feComposite in2="SourceAlpha" operator="in" result="effect1_backgroundBlur_70_673"/>
<feBlend mode="normal" in="SourceGraphic" in2="effect1_backgroundBlur_70_673" result="shape"/>
</filter>
</defs>
</svg>
